<svg id="Group_148" data-name="Group 148" xmlns="http://www.w3.org/2000/svg" width="20" height="20" viewBox="0 0 20 20">
  <defs>
    <style>
      .cls-1 {
        <!-- fill: #1877f2; -->
      }

      .cls-2 {
        fill: none;
      }
    </style>
  </defs>
  <path id="Path_173" data-name="Path 173" class="cls-1" d="M20,10A10,10,0,1,0,8.438,19.878V12.89H5.9V10H8.438V7.8a3.529,3.529,0,0,1,3.777-3.891,15.378,15.378,0,0,1,2.238.2V6.562H13.192a1.445,1.445,0,0,0-1.63,1.562V10h2.773l-.443,2.891h-2.33v6.988A10,10,0,0,0,20,10Z"/>
  <path id="Path_174" data-name="Path 174" class="cls-2" d="M310.01,209l.444-2.9h-2.779v-1.88a1.448,1.448,0,0,1,1.633-1.565h1.264V200.2a15.411,15.411,0,0,0-2.243-.2,3.536,3.536,0,0,0-3.785,3.9v2.208H302V209h2.544v7a10.127,10.127,0,0,0,3.131,0v-7Z" transform="translate(-296.11 -196.126)"/>
</svg>
