<svg xmlns="http://www.w3.org/2000/svg" width="21" height="21" viewBox="0 0 21 21">
  <defs>
    <style>
      .cls-1 {
        <!-- fill: #f5bd24; -->
        stroke: rgba(0,0,0,0);
        stroke-miterlimit: 10;
      }
    </style>
  </defs>
  <path id="Subtraction_1" data-name="Subtraction 1" class="cls-1" d="M-435,20a10.011,10.011,0,0,1-10-10A10.011,10.011,0,0,1-435,0a10.011,10.011,0,0,1,10,10A10.011,10.011,0,0,1-435,20Zm0-16a.638.638,0,0,0-.587.388l-1.369,3.2-3.465.315a.638.638,0,0,0-.548.437.639.639,0,0,0,.186.679l2.618,2.3-.772,3.4a.64.64,0,0,0,.248.659.632.632,0,0,0,.373.122.639.639,0,0,0,.328-.091L-435,13.623l2.986,1.786a.635.635,0,0,0,.327.091.637.637,0,0,0,.375-.121.639.639,0,0,0,.248-.659l-.772-3.4,2.619-2.3a.641.641,0,0,0,.185-.679.633.633,0,0,0-.548-.437l-3.464-.315-1.369-3.2A.638.638,0,0,0-435,4Z" transform="translate(445.5 0.5)"/>
</svg>
