<svg xmlns="http://www.w3.org/2000/svg" width="20" height="15" viewBox="0 0 20 15">
  <defs>
    <style>
      .cls-1 {
        <!-- fill: #e21617; -->
      }
    </style>
  </defs>
  <g id="Group_145" data-name="Group 145" transform="translate(0 -64)">
    <g id="Group_144" data-name="Group 144" transform="translate(0 64)">
      <g id="Group_143" data-name="Group 143" transform="translate(0 0)">
        <path id="Path_169" data-name="Path 169" class="cls-1" d="M302.152,283.9c-.637,0-1.175.751-1.175,1.639s.538,1.639,1.175,1.639,1.175-.751,1.175-1.639S302.788,283.9,302.152,283.9Z" transform="translate(-289.225 -275.315)"/>
        <path id="Path_170" data-name="Path 170" class="cls-1" d="M153.4,146.056c0-.889-.538-1.639-1.175-1.639s-1.175.751-1.175,1.639.538,1.639,1.175,1.639S153.4,146.945,153.4,146.056Z" transform="translate(-145.157 -141.278)"/>
        <path id="Path_171" data-name="Path 171" class="cls-1" d="M19.583,69.417A.416.416,0,0,0,20,69V65.667A1.668,1.668,0,0,0,18.333,64H1.667A1.668,1.668,0,0,0,0,65.667V69a.416.416,0,0,0,.417.417,2.083,2.083,0,0,1,0,4.167A.416.416,0,0,0,0,74v3.333A1.668,1.668,0,0,0,1.667,79H18.333A1.668,1.668,0,0,0,20,77.333V74a.416.416,0,0,0-.417-.417,2.083,2.083,0,1,1,0-4.167ZM4.729,68.776a2.558,2.558,0,0,1,2.343-2.724,2.755,2.755,0,0,1,0,5.448A2.558,2.558,0,0,1,4.729,68.776Zm1.756,8.173a.617.617,0,0,1-.324-.092A.522.522,0,0,1,6,76.1l7.028-9.807a.612.612,0,0,1,.812-.151A.522.522,0,0,1,14,66.9L6.974,76.706A.6.6,0,0,1,6.486,76.949Zm6.443,0a2.755,2.755,0,0,1,0-5.449,2.755,2.755,0,0,1,0,5.449Z" transform="translate(0 -64)"/>
      </g>
    </g>
  </g>
</svg>
