<svg id="_x31_" height="512" viewBox="0 0 24 24" width="512"
    xmlns="http://www.w3.org/2000/svg">
    <path d="m17.5 10c-3.584 0-6.5 2.916-6.5 6.5s2.916 6.5 6.5 6.5 6.5-2.916 6.5-6.5-2.916-6.5-6.5-6.5zm3.252 4.909-3.5 4c-.381.435-1.051.457-1.459.048l-2-2c-.391-.391-.391-1.023 0-1.414s1.023-.391 1.414 0l1.244 1.244 2.796-3.196c.364-.414.996-.458 1.411-.094s.458.996.094 1.412z"/>

    <!-- <path d="m17.5 23c-3.584 0-6.5-2.916-6.5-6.5s2.916-6.5 6.5-6.5 6.5 2.916 6.5 6.5-2.916 6.5-6.5 6.5zm0-12c-3.032 0-5.5 2.467-5.5 5.5s2.468 5.5 5.5 5.5 5.5-2.467 5.5-5.5-2.468-5.5-5.5-5.5z"/> -->
    <!-- <path d="m16.5 19c-.133 0-.26-.053-.354-.146l-2-2c-.195-.195-.195-.512 0-.707s.512-.195.707 0l1.622 1.622 3.148-3.598c.182-.209.498-.228.705-.047.208.182.229.498.047.706l-3.5 4c-.091.104-.221.166-.359.17-.005 0-.01 0-.016 0z"/> -->
    <path d="m8.5 3c-.276 0-.5-.224-.5-.5v-1c0-.276.224-.5.5-.5s.5.224.5.5v1c0 .276-.224.5-.5.5z"/>
    <path d="m8.5 13c-.276 0-.5-.224-.5-.5v-2c0-.276.224-.5.5-.5s.5.224.5.5v2c0 .276-.224.5-.5.5zm0-5c-.276 0-.5-.224-.5-.5v-2c0-.276.224-.5.5-.5s.5.224.5.5v2c0 .276-.224.5-.5.5z"/>
    <path d="m8.5 17c-.276 0-.5-.224-.5-.5v-1c0-.276.224-.5.5-.5s.5.224.5.5v1c0 .276-.224.5-.5.5z"/>
    <path d="m8.5 17h-6c-1.379 0-2.5-1.122-2.5-2.5v-3c0-.276.224-.5.5-.5h.5c1.103 0 2-.897 2-2s-.897-2-2-2h-.5c-.276 0-.5-.224-.5-.5v-3c0-1.378 1.121-2.5 2.5-2.5h17c1.379 0 2.5 1.122 2.5 2.5v3c0 .276-.224.5-.5.5h-.5c-.435 0-.848.137-1.193.396-.222.165-.536.12-.7-.101-.165-.221-.12-.534.101-.7.52-.389 1.14-.595 1.792-.595v-2.5c0-.827-.673-1.5-1.5-1.5h-17c-.827 0-1.5.673-1.5 1.5v2.5c1.654 0 3 1.346 3 3s-1.346 3-3 3v2.5c0 .827.673 1.5 1.5 1.5h6c.276 0 .5.224.5.5s-.224.5-.5.5z"/>
</svg>