<svg xmlns="http://www.w3.org/2000/svg" width="21.503" height="21.497" viewBox="0 0 21.503 21.497"><defs><style>.a{fill:none;stroke:currentColor;stroke-linecap:round;stroke-linejoin:round;stroke-width:1.5px;} .b{fill:currentColor;}</style></defs><g transform="translate(0.75 1.06)"><path class="a" d="M0-.31H.937A1.428,1.428,0,0,1,2.345.879L4.857,15.64a1.429,1.429,0,0,0,1.408,1.19h9.449"/><path class="a b" d="M13.928,18.973a.357.357,0,1,1-.357.357.357.357,0,0,1,.357-.357"/><path class="a b" d="M6.785,18.973a.357.357,0,1,1-.357.357.357.357,0,0,1,.357-.357"/><path class="a" d="M2.872,3.969H19.285a.734.734,0,0,1,.174.022.713.713,0,0,1,.519.866L18.6,10.381a2.856,2.856,0,0,1-2.771,2.163H4.33"/></g></svg>