<svg xmlns="http://www.w3.org/2000/svg" width="50" height="50.005" viewBox="0 0 50 50.005">
  <defs>
    <style>
      .cls-1 {
      }
    </style>
  </defs>
  <path id="Path_148" data-name="Path 148" class="cls-1" d="M48.656,21.75l0,0-20.4-20.4a4.6,4.6,0,0,0-6.51,0L1.357,21.736l-.021.021A4.6,4.6,0,0,0,4.4,29.6q.07.007.142.007h.813V44.618a5.394,5.394,0,0,0,5.388,5.387h7.98a1.465,1.465,0,0,0,1.465-1.465V36.771a2.461,2.461,0,0,1,2.458-2.458h4.707a2.461,2.461,0,0,1,2.458,2.458V48.54a1.465,1.465,0,0,0,1.465,1.465h7.98a5.394,5.394,0,0,0,5.388-5.387V29.607H45.4a4.6,4.6,0,0,0,3.258-7.857Z" transform="translate(0.001)"/>
</svg>
