<svg xmlns="http://www.w3.org/2000/svg" width="50" height="50" viewBox="0 0 50 50">
  <defs>
    <style>
      .cls-1 {
        <!-- fill: #8b8b8b; -->
      }
    </style>
  </defs>
  <path id="Path_151" data-name="Path 151" class="cls-1" d="M197.69,157H166.31a9.32,9.32,0,0,0-9.31,9.31v31.38a9.32,9.32,0,0,0,9.31,9.31h31.38a9.321,9.321,0,0,0,9.31-9.31V166.31A9.321,9.321,0,0,0,197.69,157Zm-1.374,39.324H167.684a2.075,2.075,0,0,1,0-4.149h28.633a2.075,2.075,0,0,1,0,4.149Zm0-12.25H167.684a2.074,2.074,0,0,1,0-4.149h28.633a2.074,2.074,0,0,1,0,4.149Zm0-12.25H167.684a2.075,2.075,0,0,1,0-4.149h28.633a2.075,2.075,0,0,1,0,4.149Z" transform="translate(-157 -157)"/>
</svg>
