<svg xmlns="http://www.w3.org/2000/svg" width="60.206" height="57.389" viewBox="0 0 60.206 57.389">
  <defs>
    <style>
      .cls-1 {
        <!-- fill: #8b8b8b; -->
      }
    </style>
  </defs>
  <g id="Group_92" data-name="Group 92" transform="translate(145 -9.67)">
    <g id="Group_87" data-name="Group 87" transform="translate(-106.783 52.751)">
      <g id="Group_86" data-name="Group 86" transform="translate(0 0)">
        <path id="Path_152" data-name="Path 152" class="cls-1" d="M299.506,338.862a7.154,7.154,0,1,0,7.154,7.154A7.238,7.238,0,0,0,299.506,338.862Z" transform="translate(-292.352 -338.862)"/>
      </g>
    </g>
    <g id="Group_89" data-name="Group 89" transform="translate(-145 9.67)">
      <g id="Group_88" data-name="Group 88" transform="translate(0 0)">
        <path id="Path_153" data-name="Path 153" class="cls-1" d="M58,20.4c-.135,0-.338-.067-.541-.067H14.871l-.676-4.5A6.039,6.039,0,0,0,8.179,10.67H2.7a2.685,2.685,0,1,0,0,5.369H8.179a.717.717,0,0,1,.676.6l4.191,28.322a7.4,7.4,0,0,0,7.3,6.241h28.12a7.5,7.5,0,0,0,7.3-5.906L60.16,23.489A2.654,2.654,0,0,0,58,20.4Z" transform="translate(0 -10.67)"/>
      </g>
    </g>
    <g id="Group_91" data-name="Group 91" transform="translate(-130.412 52.751)">
      <g id="Group_90" data-name="Group 90" transform="translate(0 0)">
        <path id="Path_154" data-name="Path 154" class="cls-1" d="M125.039,345.672a7.112,7.112,0,0,0-7.085-6.81,7.2,7.2,0,0,0-6.879,7.429,7.051,7.051,0,0,0,7.016,6.81h.138A7.138,7.138,0,0,0,125.039,345.672Z" transform="translate(-111.07 -338.862)"/>
      </g>
    </g>
  </g>
</svg>
