<svg xmlns="http://www.w3.org/2000/svg" width="27.752" height="20.75" viewBox="0 0 27.752 20.75"><g transform="translate(1.876 -4.36)"><path d="M.59,11.738a.75.75,0,0,1-.75-.75V8.382A4.027,4.027,0,0,1,3.861,4.36H20.219A4.026,4.026,0,0,1,24.24,8.382v1.636a.75.75,0,0,1-1.5,0V8.382A2.525,2.525,0,0,0,20.219,5.86H3.861A2.525,2.525,0,0,0,1.34,8.382v2.606A.75.75,0,0,1,.59,11.738Z"/><path d="M20.219,23.854H12.061a.75.75,0,0,1,0-1.5h8.158a2.524,2.524,0,0,0,2.521-2.521V18.2a.75.75,0,0,1,1.5,0v1.636A4.025,4.025,0,0,1,20.219,23.854Z"/><path d="M23.49,18.947H19.4a4.84,4.84,0,0,1,0-9.679H23.49a2.388,2.388,0,0,1,2.386,2.385v4.908A2.388,2.388,0,0,1,23.49,18.947ZM19.4,10.768a3.34,3.34,0,0,0,0,6.679H23.49a.887.887,0,0,0,.886-.886V11.653a.886.886,0,0,0-.886-.885Z"/><path d="M19.4,15.266a1.159,1.159,0,1,1,1.159-1.159A1.16,1.16,0,0,1,19.4,15.266Z"/><path d="M-1.876,18.567a6.543,6.543,0,1,0,6.543-6.543A6.542,6.542,0,0,0-1.876,18.567Z"/><path d="M4.667,22.588a.75.75,0,0,1-.75-.75V15.3a.75.75,0,1,1,1.5,0v6.542A.75.75,0,0,1,4.667,22.588Z"/><path d="M7.938,19.317H1.395a.75.75,0,0,1,0-1.5H7.938a.75.75,0,0,1,0,1.5Z"/></g></svg>